# xmcd CD database file
#
# Track frame offsets:
#	150
#	14132
#	26237
#	38050
#	50505
#	62697
#	76100
#	89385
#	101387
#	114560
#	126885
#	142370
#	157352
#	169225
#	180972
#	202472
#
# Disc length: 2895 seconds
#
# Revision: 0
# Processed by: cddbd v1.5.1PL0 Copyright (c) Steve Scherf et al.
# Submitted via: CDex 1.51
#
DISCID=ea0b4d10
DTITLE=Billy Eckstine - I Apologise
DYEAR=1995
DGENRE=Jazz
TTITLE0=Browing the blues away
TTITLE1=If that's the way you feel
TTITLE2=I want to talk about you
TTITLE3=The real thing happened to me
TTITLE4=I'll wait and pray [Vo Sarah Vaughan]
TTITLE5=I got a date with rhythm
TTITLE6=Good Jelly Blues
TTITLE7=Opus X
TTITLE8=I stay in the mood for you
TTITLE9=I'm the caring kind [Benny Cartar Orch Vo Maxine Sullivan]
TTITLE10=A cottage for sale
TTITLE11=I apologise
TTITLE12=I hear a rhapsody
TTITLE13=I'm beginning to see the light
TTITLE14=Misty
TTITLE15=That old black magic
EXTD=YEAR: 1995
EXTT0=
EXTT1=
EXTT2=
EXTT3=
EXTT4=
EXTT5=
EXTT6=
EXTT7=
EXTT8=
EXTT9=
EXTT10=
EXTT11=
EXTT12=
EXTT13=
EXTT14=
EXTT15=
PLAYORDER=
